0
SECTION
2
HEADER
9
$INSUNITS
70
4
9
$ACADVER
1
AC1015
0
ENDSEC
0
SECTION
2
TABLES
0
TABLE
2
LAYER
70
3
0
LAYER
2
TRACK_STRAIGHT
70
0
62
7
6
CONTINUOUS
0
LAYER
2
TRACK_CURVE
70
0
62
5
6
CONTINUOUS
0
LAYER
2
FOUNDATION
70
0
62
1
6
CONTINUOUS
0
ENDTAB
0
ENDSEC
0
SECTION
2
ENTITIES
0
LWPOLYLINE
8
TRACK_STRAIGHT
90
2
70
0
10
0
20
0
10
200000
20
0
0
POINT
8
FOUNDATION
10
0
20
3000
30
0
0
POINT
8
FOUNDATION
10
40000
20
3000
30
0
0
POINT
8
FOUNDATION
10
80000
20
3000
30
0
0
POINT
8
FOUNDATION
10
120000
20
3000
30
0
0
POINT
8
FOUNDATION
10
160000
20
3000
30
0
0
POINT
8
FOUNDATION
10
200000
20
3000
30
0
0
LWPOLYLINE
8
TRACK_CURVE
90
3
70
0
10
0
20
-20000
10
60000
20
-20000
42
-0.41421356
10
140000
20
-100000
0
POINT
8
FOUNDATION
10
0
20
-23000
30
0
0
POINT
8
FOUNDATION
10
40000
20
-23000
30
0
0
POINT
8
FOUNDATION
10
60000.0
20
-23000.0
30
0
0
POINT
8
FOUNDATION
10
83672.766
20
-26729.268
30
0
0
POINT
8
FOUNDATION
10
105052.49
20
-37555.84
30
0
0
POINT
8
FOUNDATION
10
122068.245
20
-54431.009
30
0
0
POINT
8
FOUNDATION
10
133071.816
20
-75720.178
30
0
0
POINT
8
FOUNDATION
10
136997.35
20
-99361.19
30
0
0
ENDSEC
0
EOF
